<svg width="493" height="356" viewBox="0 0 493 356" fill="none" xmlns="http://www.w3.org/2000/svg">
<rect x="6.5" y="6.5" width="480" height="264" rx="132" stroke="url(#paint0_linear_0_1)" stroke-width="13"/>
<rect x="114" y="93" width="91" height="91" rx="11" fill="url(#paint1_linear_0_1)"/>
<rect x="288" y="93" width="91" height="91" rx="11" fill="url(#paint2_linear_0_1)"/>
<path d="M141.944 340.504C140.749 341.485 139.299 342.253 137.592 342.808C135.928 343.363 134.243 343.64 132.536 343.64C129.635 343.64 127.053 343.064 124.792 341.912C122.573 340.76 120.845 339.139 119.608 337.048C118.371 334.957 117.752 332.483 117.752 329.624C117.752 326.723 118.413 324.227 119.736 322.136C121.059 320.045 122.787 318.445 124.92 317.336C127.096 316.184 129.421 315.608 131.896 315.608C134.115 315.608 136.056 315.907 137.72 316.504C139.427 317.101 140.899 317.933 142.136 319L138.936 323.16C138.211 322.563 137.293 322.029 136.184 321.56C135.075 321.091 133.837 320.856 132.472 320.856C130.936 320.856 129.528 321.24 128.248 322.008C127.011 322.776 126.029 323.821 125.304 325.144C124.579 326.467 124.216 327.96 124.216 329.624C124.216 331.245 124.579 332.717 125.304 334.04C126.072 335.363 127.117 336.408 128.44 337.176C129.805 337.944 131.341 338.328 133.048 338.328C134.157 338.328 135.181 338.157 136.12 337.816C137.101 337.475 137.955 337.027 138.68 336.472L141.944 340.504ZM149.494 293.272H155.958V343H149.494V293.272ZM177.256 343.64C174.739 343.64 172.456 343.107 170.408 342.04C168.36 340.973 166.739 339.416 165.544 337.368C164.349 335.277 163.752 332.696 163.752 329.624C163.752 326.637 164.371 324.077 165.608 321.944C166.888 319.768 168.552 318.104 170.6 316.952C172.691 315.757 174.952 315.16 177.384 315.16C179.944 315.16 182.056 315.693 183.72 316.76C185.384 317.827 186.664 319.107 187.56 320.6L187.176 321.624L187.816 316.248H193.768V343H187.304V336.216L187.944 337.816C187.773 338.157 187.411 338.648 186.856 339.288C186.301 339.928 185.576 340.589 184.68 341.272C183.784 341.912 182.696 342.467 181.416 342.936C180.179 343.405 178.792 343.64 177.256 343.64ZM178.984 338.328C181.117 338.328 182.909 337.773 184.36 336.664C185.853 335.512 186.835 333.955 187.304 331.992V326.488C186.792 324.739 185.747 323.288 184.168 322.136C182.632 320.984 180.84 320.408 178.792 320.408C177.256 320.408 175.848 320.792 174.568 321.56C173.288 322.285 172.264 323.331 171.496 324.696C170.728 326.019 170.344 327.555 170.344 329.304C170.344 331.011 170.728 332.547 171.496 333.912C172.307 335.277 173.373 336.365 174.696 337.176C176.019 337.944 177.448 338.328 178.984 338.328ZM209.629 316.248L210.269 323.928L210.013 322.904C210.738 321.283 211.741 319.896 213.021 318.744C214.343 317.592 215.709 316.717 217.117 316.12C218.567 315.48 219.783 315.16 220.765 315.16L220.445 321.56C218.439 321.432 216.669 321.816 215.133 322.712C213.639 323.608 212.466 324.803 211.613 326.296C210.759 327.789 210.333 329.389 210.333 331.096V343H203.869V316.248H209.629ZM239.663 343.64C236.591 343.64 233.945 343.043 231.727 341.848C229.508 340.611 227.801 338.925 226.607 336.792C225.412 334.616 224.815 332.163 224.815 329.432C224.815 326.787 225.476 324.397 226.799 322.264C228.164 320.088 229.977 318.36 232.239 317.08C234.5 315.8 237.017 315.16 239.791 315.16C243.375 315.16 246.34 316.205 248.687 318.296C251.076 320.344 252.676 323.245 253.487 327L231.663 334.552L230.127 330.84L247.663 324.44L246.319 325.336C245.807 323.971 244.996 322.797 243.887 321.816C242.777 320.792 241.263 320.28 239.343 320.28C236.953 320.28 234.991 321.112 233.455 322.776C231.961 324.397 231.215 326.488 231.215 329.048C231.215 331.779 232.025 333.976 233.647 335.64C235.268 337.304 237.316 338.136 239.791 338.136C240.943 338.136 242.052 337.944 243.119 337.56C244.185 337.133 245.188 336.579 246.127 335.896L249.071 340.696C247.705 341.592 246.191 342.317 244.527 342.872C242.905 343.384 241.284 343.64 239.663 343.64ZM263.048 355.864L280.648 316.248H286.6L269.32 355.864H263.048ZM269.704 343.192L256.84 316.248H264.072L274.76 339.928L269.704 343.192ZM289.672 321.88C289.672 320.856 290.034 320.003 290.76 319.32C291.485 318.595 292.317 318.232 293.256 318.232C294.066 318.232 294.834 318.595 295.56 319.32C296.328 320.003 296.712 320.856 296.712 321.88C296.712 322.947 296.328 323.821 295.56 324.504C294.834 325.144 294.066 325.464 293.256 325.464C292.317 325.464 291.485 325.144 290.76 324.504C290.034 323.821 289.672 322.947 289.672 321.88ZM289.672 339.416C289.672 338.392 290.034 337.539 290.76 336.856C291.485 336.131 292.317 335.768 293.256 335.768C294.066 335.768 294.834 336.131 295.56 336.856C296.328 337.539 296.712 338.392 296.712 339.416C296.712 340.483 296.328 341.357 295.56 342.04C294.834 342.68 294.066 343 293.256 343C292.317 343 291.485 342.68 290.76 342.04C290.034 341.357 289.672 340.483 289.672 339.416ZM320.695 343.64C318.22 343.64 316.087 343.149 314.295 342.168C312.503 341.144 311.052 339.843 309.943 338.264L310.583 336.408V343H304.119V293.272H310.583V322.136L310.391 319.768C311.457 318.403 312.951 317.293 314.871 316.44C316.833 315.587 319.052 315.16 321.527 315.16C323.916 315.16 326.092 315.736 328.055 316.888C330.017 317.997 331.596 319.597 332.791 321.688C333.985 323.779 334.583 326.275 334.583 329.176C334.583 332.205 333.921 334.808 332.599 336.984C331.319 339.117 329.633 340.76 327.543 341.912C325.452 343.064 323.169 343.64 320.695 343.64ZM319.287 338.2C320.951 338.2 322.444 337.816 323.767 337.048C325.089 336.237 326.113 335.149 326.839 333.784C327.607 332.419 327.991 330.883 327.991 329.176C327.991 327.469 327.607 325.955 326.839 324.632C326.071 323.309 325.025 322.264 323.703 321.496C322.423 320.685 320.951 320.28 319.287 320.28C317.153 320.28 315.297 320.835 313.719 321.944C312.14 323.053 311.095 324.525 310.583 326.36V331.992C311.137 333.784 312.161 335.277 313.655 336.472C315.191 337.624 317.068 338.2 319.287 338.2ZM342.369 316.248H348.833V343H342.369V316.248ZM342.049 306.648C342.049 305.667 342.433 304.835 343.201 304.152C344.011 303.469 344.886 303.128 345.825 303.128C346.763 303.128 347.617 303.469 348.385 304.152C349.153 304.835 349.537 305.667 349.537 306.648C349.537 307.715 349.153 308.568 348.385 309.208C347.617 309.848 346.763 310.168 345.825 310.168C344.886 310.168 344.011 309.848 343.201 309.208C342.433 308.568 342.049 307.715 342.049 306.648ZM361.491 304.536H368.019V316.312H375.187V321.368H368.019V343H361.491V321.368H356.755V316.312H361.491V304.536Z" fill="url(#paint3_linear_0_1)"/>
<defs>
<linearGradient id="paint0_linear_0_1" x1="75" y1="254.62" x2="385.06" y2="-20.998" gradientUnits="userSpaceOnUse">
<stop stop-color="#FF0000"/>
<stop offset="1" stop-color="#FF004C"/>
</linearGradient>
<linearGradient id="paint1_linear_0_1" x1="114" y1="184" x2="209.5" y2="93" gradientUnits="userSpaceOnUse">
<stop stop-color="#D80000"/>
<stop offset="1" stop-color="#FF004C"/>
</linearGradient>
<linearGradient id="paint2_linear_0_1" x1="288" y1="184" x2="379" y2="93" gradientUnits="userSpaceOnUse">
<stop stop-color="#D80000"/>
<stop offset="1" stop-color="#FF004C"/>
</linearGradient>
<linearGradient id="paint3_linear_0_1" x1="115" y1="369" x2="378" y2="273" gradientUnits="userSpaceOnUse">
<stop stop-color="#FF0000"/>
<stop offset="1" stop-color="#FF004C"/>
</linearGradient>
</defs>
</svg>
